<svg width="110" height="38" viewBox="0 0 110 38" fill="none" xmlns="http://www.w3.org/2000/svg">
<path d="M1.54972e-06 37.1934V2.28427H14.4205C17.0341 2.28427 19.2898 2.75586 21.1875 3.69904C23.0966 4.63086 24.5682 5.97177 25.6023 7.72177C26.6364 9.4604 27.1534 11.5229 27.1534 13.9093C27.1534 16.3297 26.625 18.3865 25.5682 20.0797C24.5114 21.7615 23.0114 23.0456 21.0682 23.932C19.125 24.807 16.8239 25.2445 14.1648 25.2445H5.04546V18.5968H12.5966C13.8693 18.5968 14.9318 18.432 15.7841 18.1024C16.6477 17.7615 17.3011 17.2502 17.7443 16.5684C18.1875 15.8752 18.4091 14.9888 18.4091 13.9093C18.4091 12.8297 18.1875 11.9377 17.7443 11.2331C17.3011 10.5172 16.6477 9.98313 15.7841 9.63086C14.9205 9.26722 13.858 9.08541 12.5966 9.08541H8.4375V37.1934H1.54972e-06ZM19.6534 21.2388L28.3466 37.1934H19.142L10.6193 21.2388H19.6534ZM29.3813 37.1934V11.0115H37.7165V37.1934H29.3813ZM33.5574 7.96041C32.3869 7.96041 31.3813 7.57404 30.5403 6.80131C29.6994 6.01722 29.279 5.07404 29.279 3.97177C29.279 2.88086 29.6994 1.94904 30.5403 1.17631C31.3813 0.392221 32.3869 0.000175476 33.5574 0.000175476C34.7392 0.000175476 35.7449 0.392221 36.5744 1.17631C37.4153 1.94904 37.8358 2.88086 37.8358 3.97177C37.8358 5.07404 37.4153 6.01722 36.5744 6.80131C35.7449 7.57404 34.7392 7.96041 33.5574 7.96041ZM55.5026 11.0115V17.1479H38.6616V11.0115H55.5026ZM42.173 37.1934V9.68199C42.173 7.65927 42.5537 5.98313 43.3151 4.65359C44.0764 3.31268 45.1332 2.31268 46.4855 1.65359C47.8378 0.98313 49.4003 0.647902 51.173 0.647902C52.3321 0.647902 53.423 0.738812 54.4457 0.920632C55.4798 1.09109 56.2469 1.2445 56.7469 1.38086L55.4173 7.48313C55.1105 7.38086 54.7355 7.29563 54.2923 7.22745C53.8605 7.15927 53.4514 7.12518 53.0651 7.12518C52.0878 7.12518 51.4173 7.34109 51.0537 7.77291C50.6901 8.20472 50.5082 8.79563 50.5082 9.54563V37.1934H42.173ZM71.9932 11.0115V17.1479H55.1523V11.0115H71.9932ZM58.6636 37.1934V9.68199C58.6636 7.65927 59.0443 5.98313 59.8057 4.65359C60.567 3.31268 61.6239 2.31268 62.9761 1.65359C64.3284 0.98313 65.8909 0.647902 67.6636 0.647902C68.8227 0.647902 69.9136 0.738812 70.9364 0.920632C71.9705 1.09109 72.7375 1.2445 73.2375 1.38086L71.908 7.48313C71.6011 7.38086 71.2261 7.29563 70.783 7.22745C70.3511 7.15927 69.942 7.12518 69.5557 7.12518C68.5784 7.12518 67.908 7.34109 67.5443 7.77291C67.1807 8.20472 66.9989 8.79563 66.9989 9.54563V37.1934H58.6636ZM81.9384 2.28427V37.1934H73.6031V2.28427H81.9384ZM97.0824 37.6877C94.3438 37.6877 91.9801 37.1479 89.9915 36.0684C88.0142 34.9775 86.4915 33.4263 85.4233 31.415C84.3665 29.3922 83.8381 26.9888 83.8381 24.2047C83.8381 21.5002 84.3722 19.1365 85.4403 17.1138C86.5085 15.0797 88.0142 13.5002 89.9574 12.3752C91.9006 11.2388 94.1903 10.6706 96.8267 10.6706C98.6903 10.6706 100.395 10.9604 101.94 11.5399C103.486 12.1195 104.821 12.9774 105.946 14.1138C107.071 15.2502 107.946 16.6536 108.571 18.324C109.196 19.9831 109.509 21.8865 109.509 24.0343V26.1138H86.7528V21.2729H101.753C101.741 20.3865 101.531 19.5968 101.122 18.9036C100.713 18.2104 100.151 17.6706 99.4347 17.2843C98.7301 16.8865 97.9176 16.6877 96.9972 16.6877C96.0653 16.6877 95.2301 16.8979 94.4915 17.3184C93.7528 17.7275 93.1676 18.29 92.7358 19.0059C92.304 19.7104 92.0767 20.5115 92.054 21.4093V26.3354C92.054 27.4036 92.2642 28.3411 92.6847 29.1479C93.1051 29.9434 93.7017 30.5627 94.4744 31.0059C95.2472 31.449 96.1676 31.6706 97.2358 31.6706C97.9744 31.6706 98.6449 31.5684 99.2472 31.3638C99.8494 31.1593 100.366 30.8581 100.798 30.4604C101.23 30.0627 101.554 29.574 101.77 28.9945L109.423 29.2161C109.105 30.932 108.406 32.4263 107.327 33.699C106.259 34.9604 104.855 35.9434 103.116 36.6479C101.378 37.3411 99.3665 37.6877 97.0824 37.6877Z" fill="#5DCAA5"/>
</svg>
